# xmcd
#
# Track frame offsets: 
#        150
#        21235
#        40534
#        58774
#        82135
#        98605
#        117471
#        133045
#        151258
#        175198
#        194873
#        217573
#        240177
#        260275
#
# Disc length: 3737 seconds
#
# Revision: 0
# Processed by: cddbd v1.5.2PL0 Copyright (c) Steve Scherf et al.
# Submitted via: ExactAudioCopyFreeDBPlugin 1.0
#
DISCID=b40e970e
DTITLE=柏菲群星 - 柏菲精选三
DYEAR=1900
DGENRE=Pop
TTITLE0=但愿人长久(孙国庆 陈妃平)
TTITLE1=草原夜色美(陆平)
TTITLE2=信歌(伽菲珈而)
TTITLE3=牵手(古璇)
TTITLE4=青海青(姜苏)
TTITLE5=情关(张炜)
TTITLE6=栀子花开(张炜)
TTITLE7=美人吟(甘雅丹)
TTITLE8=葬花吟(黑鸭子)
TTITLE9=雅鲁藏布(甘雅丹)
TTITLE10=乘除加减(张晴)
TTITLE11=我和春天有个约会(李烁)
TTITLE12=外面的世界(伽菲珈而 杰仔)
TTITLE13=莫扎特四十号交响曲(胭花四乐)
EXTD=
EXTT0=
EXTT1=
EXTT2=
EXTT3=
EXTT4=
EXTT5=
EXTT6=
EXTT7=
EXTT8=
EXTT9=
EXTT10=
EXTT11=
EXTT12=
EXTT13=
PLAYORDER=
